<svg version="1.1" id="Layer_1" xmlns="http://www.w3.org/2000/svg" x="0" y="0" viewBox="0 0 512 512" xml:space="preserve"><path d="M0 256.006C0 397.402 114.606 512.004 255.996 512 397.394 512.004 512 397.402 512 256.006 512.009 114.61 397.394 0 255.996 0 114.606 0 0 114.614 0 256.006z" fill="#fa6e51"/><path d="M511.393 272.788l-119.43-119.43h-.001l-61.725-61.725a6.926 6.926 0 00-2.235-1.494 6.92 6.92 0 00-2.669-.539h-124.8a6.934 6.934 0 00-6.933 6.933V131.2h-76.267a6.934 6.934 0 00-6.933 6.933v277.333c0 2.347 1.243 4.32 3.027 5.574.463.658 82.754 82.949 83.412 83.412.217.309.526.521.783.783 18.758 4.377 38.282 6.765 58.373 6.764 135.755.005 246.747-105.648 255.398-239.211z" fill="#e8573f"/><path d="M401.061 163.197a6.943 6.943 0 00-1.494-2.235l-69.329-69.329a6.943 6.943 0 00-2.235-1.494 6.928 6.928 0 00-2.67-.539h-124.8a6.933 6.933 0 00-6.933 6.933V131.2h-76.267a6.933 6.933 0 00-6.933 6.933v277.333a6.933 6.933 0 006.933 6.933h194.133a6.933 6.933 0 006.933-6.933V380.8h76.267a6.933 6.933 0 006.933-6.933v-208a6.909 6.909 0 00-.538-2.67zm-68.794-49.927l45.663 45.663h-45.663V113.27zm-27.734 295.263H124.267V145.067H235.2v62.4a6.933 6.933 0 006.933 6.933h62.4v194.133zm-9.803-208h-45.663V154.87l45.663 45.663zm23.67 166.4V207.467c0-.926-.189-1.831-.539-2.67a6.943 6.943 0 00-1.494-2.235l-69.329-69.329a6.943 6.943 0 00-2.235-1.494 6.928 6.928 0 00-2.67-.539h-34.667v-27.733H318.4v62.4a6.933 6.933 0 006.933 6.933h62.4v194.133H318.4z" fill="#f4f6f9"/></svg>